<mxfile host="app.diagrams.net" modified="2024-02-02T10:57:09.662Z" agent="Mozilla/5.0 (Windows NT 10.0; Win64; x64; rv:122.0) Gecko/20100101 Firefox/122.0" etag="jBjrxQrE8FMZUdqYmkDs" version="22.1.21" type="github">
  <diagram id="C5RBs43oDa-KdzZeNtuy" name="Page-1">
    <mxGraphModel dx="1434" dy="774" grid="1" gridSize="10" guides="1" tooltips="1" connect="1" arrows="1" fold="1" page="1" pageScale="1" pageWidth="827" pageHeight="1169" math="0" shadow="0">
      <root>
        <mxCell id="WIyWlLk6GJQsqaUBKTNV-0" />
        <mxCell id="WIyWlLk6GJQsqaUBKTNV-1" parent="WIyWlLk6GJQsqaUBKTNV-0" />
        <mxCell id="7HGE-dyt3ShhVV6eNgTS-59" style="edgeStyle=orthogonalEdgeStyle;rounded=0;orthogonalLoop=1;jettySize=auto;html=1;exitX=1;exitY=0.5;exitDx=0;exitDy=0;entryX=0;entryY=0.5;entryDx=0;entryDy=0;" edge="1" parent="WIyWlLk6GJQsqaUBKTNV-1" source="7HGE-dyt3ShhVV6eNgTS-4" target="7HGE-dyt3ShhVV6eNgTS-22">
          <mxGeometry relative="1" as="geometry" />
        </mxCell>
        <mxCell id="7HGE-dyt3ShhVV6eNgTS-4" value="Retrieval System" style="swimlane;whiteSpace=wrap;html=1;fillColor=#e1d5e7;strokeColor=#9673a6;startSize=23;" vertex="1" parent="WIyWlLk6GJQsqaUBKTNV-1">
          <mxGeometry x="280" y="360" width="290" height="280" as="geometry" />
        </mxCell>
        <mxCell id="7HGE-dyt3ShhVV6eNgTS-7" value="&lt;div&gt;Indicies&lt;/div&gt;" style="strokeWidth=2;html=1;shape=mxgraph.flowchart.database;whiteSpace=wrap;fillColor=#ffe6cc;strokeColor=#d79b00;" vertex="1" parent="7HGE-dyt3ShhVV6eNgTS-4">
          <mxGeometry x="44" y="40" width="60" height="60" as="geometry" />
        </mxCell>
        <mxCell id="7HGE-dyt3ShhVV6eNgTS-32" value="Re-ranking" style="rounded=1;whiteSpace=wrap;html=1;fontSize=12;glass=0;strokeWidth=1;shadow=0;fillColor=#e1d5e7;strokeColor=#9673a6;" vertex="1" parent="7HGE-dyt3ShhVV6eNgTS-4">
          <mxGeometry x="14" y="130" width="120" height="40" as="geometry" />
        </mxCell>
        <mxCell id="7HGE-dyt3ShhVV6eNgTS-34" value="Hypothetical Questions and HyDE" style="rounded=1;whiteSpace=wrap;html=1;fontSize=12;glass=0;strokeWidth=1;shadow=0;fillColor=#e1d5e7;strokeColor=#9673a6;" vertex="1" parent="7HGE-dyt3ShhVV6eNgTS-4">
          <mxGeometry x="160" y="130" width="120" height="40" as="geometry" />
        </mxCell>
        <mxCell id="7HGE-dyt3ShhVV6eNgTS-37" value="Fine-tuning Embeddings" style="rounded=1;whiteSpace=wrap;html=1;fontSize=12;glass=0;strokeWidth=1;shadow=0;fillColor=#fff2cc;strokeColor=#d6b656;" vertex="1" parent="7HGE-dyt3ShhVV6eNgTS-4">
          <mxGeometry x="14" y="195" width="120" height="40" as="geometry" />
        </mxCell>
        <mxCell id="7HGE-dyt3ShhVV6eNgTS-33" value="Hyperparamter Tuning" style="rounded=1;whiteSpace=wrap;html=1;fontSize=12;glass=0;strokeWidth=1;shadow=0;fillColor=#fff2cc;strokeColor=#d6b656;" vertex="1" parent="7HGE-dyt3ShhVV6eNgTS-4">
          <mxGeometry x="160" y="50" width="120" height="40" as="geometry" />
        </mxCell>
        <mxCell id="7HGE-dyt3ShhVV6eNgTS-56" style="edgeStyle=orthogonalEdgeStyle;rounded=0;orthogonalLoop=1;jettySize=auto;html=1;exitX=0;exitY=1;exitDx=0;exitDy=0;entryX=0;entryY=0;entryDx=0;entryDy=0;" edge="1" parent="WIyWlLk6GJQsqaUBKTNV-1" source="7HGE-dyt3ShhVV6eNgTS-14" target="7HGE-dyt3ShhVV6eNgTS-19">
          <mxGeometry relative="1" as="geometry" />
        </mxCell>
        <mxCell id="7HGE-dyt3ShhVV6eNgTS-14" value="&lt;div&gt;Data Preparation and Management&lt;/div&gt;" style="swimlane;whiteSpace=wrap;html=1;fillColor=#ffe6cc;strokeColor=#d79b00;" vertex="1" parent="WIyWlLk6GJQsqaUBKTNV-1">
          <mxGeometry x="40" y="40" width="360" height="240" as="geometry">
            <mxRectangle x="410" y="40" width="240" height="30" as="alternateBounds" />
          </mxGeometry>
        </mxCell>
        <mxCell id="7HGE-dyt3ShhVV6eNgTS-23" value="Chunking &amp;amp; Vectorization" style="rounded=1;whiteSpace=wrap;html=1;fontSize=12;glass=0;strokeWidth=1;shadow=0;fillColor=#fff2cc;strokeColor=#d6b656;" vertex="1" parent="7HGE-dyt3ShhVV6eNgTS-14">
          <mxGeometry x="14" y="50" width="120" height="40" as="geometry" />
        </mxCell>
        <mxCell id="7HGE-dyt3ShhVV6eNgTS-24" value="Metadata and Summaries" style="rounded=1;whiteSpace=wrap;html=1;fontSize=12;glass=0;strokeWidth=1;shadow=0;fillColor=#e1d5e7;strokeColor=#9673a6;" vertex="1" parent="7HGE-dyt3ShhVV6eNgTS-14">
          <mxGeometry x="161" y="50" width="120" height="40" as="geometry" />
        </mxCell>
        <mxCell id="7HGE-dyt3ShhVV6eNgTS-25" value="User Profile Management" style="rounded=1;whiteSpace=wrap;html=1;fontSize=12;glass=0;strokeWidth=1;shadow=0;" vertex="1" parent="7HGE-dyt3ShhVV6eNgTS-14">
          <mxGeometry x="14" y="190" width="120" height="40" as="geometry" />
        </mxCell>
        <mxCell id="7HGE-dyt3ShhVV6eNgTS-26" value="Data Cleaning" style="rounded=1;whiteSpace=wrap;html=1;fontSize=12;glass=0;strokeWidth=1;shadow=0;fillColor=#fff2cc;strokeColor=#d6b656;" vertex="1" parent="7HGE-dyt3ShhVV6eNgTS-14">
          <mxGeometry x="14" y="120" width="120" height="40" as="geometry" />
        </mxCell>
        <mxCell id="7HGE-dyt3ShhVV6eNgTS-31" value="Complex Formats Handling" style="rounded=1;whiteSpace=wrap;html=1;fontSize=12;glass=0;strokeWidth=1;shadow=0;fillColor=#fff2cc;strokeColor=#d6b656;" vertex="1" parent="7HGE-dyt3ShhVV6eNgTS-14">
          <mxGeometry x="161" y="120" width="120" height="40" as="geometry" />
        </mxCell>
        <mxCell id="7HGE-dyt3ShhVV6eNgTS-57" style="edgeStyle=orthogonalEdgeStyle;rounded=0;orthogonalLoop=1;jettySize=auto;html=1;exitX=1;exitY=0.5;exitDx=0;exitDy=0;entryX=0;entryY=0.5;entryDx=0;entryDy=0;" edge="1" parent="WIyWlLk6GJQsqaUBKTNV-1" source="7HGE-dyt3ShhVV6eNgTS-19" target="7HGE-dyt3ShhVV6eNgTS-4">
          <mxGeometry relative="1" as="geometry" />
        </mxCell>
        <mxCell id="7HGE-dyt3ShhVV6eNgTS-19" value="&lt;div&gt;User Input processing&lt;/div&gt;" style="swimlane;horizontal=0;whiteSpace=wrap;html=1;fillColor=#d5e8d4;strokeColor=#82b366;" vertex="1" parent="WIyWlLk6GJQsqaUBKTNV-1">
          <mxGeometry x="40" y="360" width="200" height="280" as="geometry" />
        </mxCell>
        <mxCell id="WIyWlLk6GJQsqaUBKTNV-3" value="User Authentication" style="rounded=1;whiteSpace=wrap;html=1;fontSize=12;glass=0;strokeWidth=1;shadow=0;" parent="7HGE-dyt3ShhVV6eNgTS-19" vertex="1">
          <mxGeometry x="40" y="20" width="120" height="40" as="geometry" />
        </mxCell>
        <mxCell id="WIyWlLk6GJQsqaUBKTNV-7" value="Query Rewriter" style="rounded=1;whiteSpace=wrap;html=1;fontSize=12;glass=0;strokeWidth=1;shadow=0;fillColor=#e1d5e7;strokeColor=#9673a6;" parent="7HGE-dyt3ShhVV6eNgTS-19" vertex="1">
          <mxGeometry x="40" y="80" width="120" height="40" as="geometry" />
        </mxCell>
        <mxCell id="7HGE-dyt3ShhVV6eNgTS-8" value="Input Guardrail" style="rounded=1;whiteSpace=wrap;html=1;fontSize=12;glass=0;strokeWidth=1;shadow=0;fillColor=#f8cecc;strokeColor=#b85450;" vertex="1" parent="7HGE-dyt3ShhVV6eNgTS-19">
          <mxGeometry x="40" y="140" width="120" height="40" as="geometry" />
        </mxCell>
        <mxCell id="7HGE-dyt3ShhVV6eNgTS-5" value="chat history&amp;nbsp; " style="strokeWidth=2;html=1;shape=mxgraph.flowchart.multi-document;whiteSpace=wrap;fillColor=#ffe6cc;strokeColor=#d79b00;" vertex="1" parent="7HGE-dyt3ShhVV6eNgTS-19">
          <mxGeometry x="56" y="210" width="88" height="60" as="geometry" />
        </mxCell>
        <mxCell id="7HGE-dyt3ShhVV6eNgTS-60" style="edgeStyle=orthogonalEdgeStyle;rounded=0;orthogonalLoop=1;jettySize=auto;html=1;exitX=1;exitY=0;exitDx=0;exitDy=0;entryX=1;entryY=1;entryDx=0;entryDy=0;" edge="1" parent="WIyWlLk6GJQsqaUBKTNV-1" source="7HGE-dyt3ShhVV6eNgTS-22" target="7HGE-dyt3ShhVV6eNgTS-44">
          <mxGeometry relative="1" as="geometry">
            <mxPoint x="790" y="280" as="targetPoint" />
          </mxGeometry>
        </mxCell>
        <mxCell id="7HGE-dyt3ShhVV6eNgTS-22" value="Information Processing and Generation" style="swimlane;horizontal=0;whiteSpace=wrap;html=1;fillColor=#fff2cc;strokeColor=#d6b656;" vertex="1" parent="WIyWlLk6GJQsqaUBKTNV-1">
          <mxGeometry x="600" y="360" width="200" height="280" as="geometry" />
        </mxCell>
        <mxCell id="7HGE-dyt3ShhVV6eNgTS-9" value="Response Generation" style="rounded=1;whiteSpace=wrap;html=1;absoluteArcSize=1;arcSize=14;strokeWidth=2;fillColor=#e1d5e7;strokeColor=#9673a6;" vertex="1" parent="7HGE-dyt3ShhVV6eNgTS-22">
          <mxGeometry x="40" y="20" width="120" height="40" as="geometry" />
        </mxCell>
        <mxCell id="7HGE-dyt3ShhVV6eNgTS-28" value="Output Guardrails and Moderation" style="rounded=1;whiteSpace=wrap;html=1;absoluteArcSize=1;arcSize=14;strokeWidth=2;fillColor=#f8cecc;strokeColor=#b85450;" vertex="1" parent="7HGE-dyt3ShhVV6eNgTS-22">
          <mxGeometry x="40" y="80" width="120" height="40" as="geometry" />
        </mxCell>
        <mxCell id="7HGE-dyt3ShhVV6eNgTS-29" value="Caching" style="strokeWidth=2;html=1;shape=mxgraph.flowchart.multi-document;whiteSpace=wrap;fillColor=#ffe6cc;strokeColor=#d79b00;" vertex="1" parent="7HGE-dyt3ShhVV6eNgTS-22">
          <mxGeometry x="56" y="140" width="88" height="60" as="geometry" />
        </mxCell>
        <mxCell id="7HGE-dyt3ShhVV6eNgTS-30" value="Personalization and Customization" style="rounded=1;whiteSpace=wrap;html=1;fontSize=12;glass=0;strokeWidth=1;shadow=0;" vertex="1" parent="7HGE-dyt3ShhVV6eNgTS-22">
          <mxGeometry x="40" y="215" width="120" height="40" as="geometry" />
        </mxCell>
        <mxCell id="7HGE-dyt3ShhVV6eNgTS-61" style="edgeStyle=orthogonalEdgeStyle;rounded=0;orthogonalLoop=1;jettySize=auto;html=1;exitX=0;exitY=0;exitDx=0;exitDy=0;entryX=1;entryY=0;entryDx=0;entryDy=0;dashed=1;" edge="1" parent="WIyWlLk6GJQsqaUBKTNV-1" source="7HGE-dyt3ShhVV6eNgTS-44" target="7HGE-dyt3ShhVV6eNgTS-14">
          <mxGeometry relative="1" as="geometry">
            <Array as="points">
              <mxPoint x="440" y="40" />
              <mxPoint x="440" y="40" />
            </Array>
          </mxGeometry>
        </mxCell>
        <mxCell id="7HGE-dyt3ShhVV6eNgTS-44" value="Feedback and Continuous Improvement" style="swimlane;whiteSpace=wrap;html=1;startSize=23;" vertex="1" parent="WIyWlLk6GJQsqaUBKTNV-1">
          <mxGeometry x="480" y="40" width="320" height="240" as="geometry" />
        </mxCell>
        <mxCell id="7HGE-dyt3ShhVV6eNgTS-46" value="Data Refinement" style="rounded=1;whiteSpace=wrap;html=1;fontSize=12;glass=0;strokeWidth=1;shadow=0;fillColor=#e1d5e7;strokeColor=#9673a6;" vertex="1" parent="7HGE-dyt3ShhVV6eNgTS-44">
          <mxGeometry x="170" y="50" width="120" height="40" as="geometry" />
        </mxCell>
        <mxCell id="7HGE-dyt3ShhVV6eNgTS-47" value="System Monitoring" style="rounded=1;whiteSpace=wrap;html=1;fontSize=12;glass=0;strokeWidth=1;shadow=0;fillColor=#fff2cc;strokeColor=#d6b656;" vertex="1" parent="7HGE-dyt3ShhVV6eNgTS-44">
          <mxGeometry x="170" y="120" width="120" height="40" as="geometry" />
        </mxCell>
        <mxCell id="7HGE-dyt3ShhVV6eNgTS-48" value="Generation Evaluation" style="rounded=1;whiteSpace=wrap;html=1;fontSize=12;glass=0;strokeWidth=1;shadow=0;fillColor=#fff2cc;strokeColor=#d6b656;" vertex="1" parent="7HGE-dyt3ShhVV6eNgTS-44">
          <mxGeometry x="20" y="120" width="120" height="40" as="geometry" />
        </mxCell>
        <mxCell id="7HGE-dyt3ShhVV6eNgTS-49" value="User Feedback" style="rounded=1;whiteSpace=wrap;html=1;fontSize=12;glass=0;strokeWidth=1;shadow=0;" vertex="1" parent="7HGE-dyt3ShhVV6eNgTS-44">
          <mxGeometry x="20" y="50" width="120" height="40" as="geometry" />
        </mxCell>
      </root>
    </mxGraphModel>
  </diagram>
</mxfile>
